<svg width="322" height="280.5" viewBox="0 0 644 561" fill="none" xmlns="http://www.w3.org/2000/svg">
<path d="M384.5 433C414.506 407.871 427.147 385.822 457.5 354C525.224 417.738 569.464 445.965 644 481.25V545C532.052 519.977 475.94 498.532 384.5 433Z" fill="#D0732D"/>
<path d="M644 481.25C569.464 445.965 525.224 417.738 457.5 354C427.147 385.822 414.506 407.871 384.5 433C475.94 498.532 532.052 519.977 644 545V481.25ZM644 545V560.37L640.728 559.639C527.249 534.273 466.906 509.941 373.5 443L384.5 433L374.869 421.5C388.932 409.723 398.964 398.657 409.427 386.312C419.846 374.017 431.067 359.979 446.646 343.646L457.5 354L466.5 342.5C533 405.086 570.776 429.836 644 464.5V481.25V545Z" fill="#D9D9D9"/>
<path d="M445.054 345.86C532.145 233.512 563.23 129.759 543.104 1.49012e-08H496.143H449.182C455.986 127.843 421.094 236.312 319.653 339.446C223.08 437.632 146.124 487.411 0.999993 492.5V495.5C58.7143 509.976 118.831 519.109 194.769 507.195C306.097 489.729 377.879 432.516 445.054 345.86Z" fill="#D0732D"/>
<path d="M558.279 0C578.398 133.327 545.646 240.577 456.909 355.05C388.283 443.579 313.427 503.762 197.094 522.014C120.115 534.091 58.801 525.201 0.999993 510.957C-0.217999 510.657 2.21498 511.262 0.999993 510.957L0.999993 495.5V492.5V477.5C71.8175 475.017 124.568 461.696 171.689 437.536C219.033 413.263 261.091 377.595 308.959 328.928C407.292 228.953 441.092 123.861 434.5 0L449.182 1.49012e-08C455.986 127.843 421.094 236.312 319.653 339.446L317.394 341.738C221.874 438.407 144.99 487.451 0.999993 492.5V495.5C57.8125 509.75 116.953 518.822 191.221 507.738L194.769 507.195C306.097 489.729 377.879 432.516 445.054 345.86C532.145 233.512 563.23 129.759 543.104 1.49012e-08H496.143L558.279 0Z" fill="#D9D9D9"/>
</svg>
