<svg width="232" height="345" viewBox="0 0 232 345" fill="none" xmlns="http://www.w3.org/2000/svg">
<g opacity="0.7">
<path d="M15.8616 100C11.9075 88.0348 10.5094 76 8.94421 68C7.379 60 -7.94439 127.254 5.44421 160C8.30628 167 18.7396 180.803 33.2236 193L61.1437 215.858L113.362 260.259C115.137 261.768 116.828 263.202 118.362 264.5C124.862 270 131.362 281 131.862 292.5V335.5C131.862 335.5 131.753 338.246 131.862 340C132.883 356.548 143.362 326.5 154.362 304C165.362 281.5 164.362 265.5 162.862 257C161.362 248.5 156.236 238.064 143.362 227C142.643 226.382 141.93 225.777 141.224 225.184C140.547 224.623 127.428 215.2 80.3616 182C66.6068 171.22 54.1147 161.901 45.8616 153.5C37.6084 145.1 23.3777 122.744 15.8616 100Z" fill="url(#paint0_linear_7_19)"/>
<path d="M207.362 46.5C190.483 23.2538 170.972 12.1896 150.362 0C174.374 48.2406 188.862 83.5 135.362 135.5C130.991 139.097 126.935 142.418 123.165 145.5C114.263 152.776 106.954 158.714 100.862 163.783C76.1737 184.321 71.4821 190.559 61.8616 213.5C46.8827 258.437 72.0995 285.066 110.698 325.827L110.862 326C115.862 331.28 117.803 329.687 115.862 321.5C109.447 300.912 106.747 276.784 111.862 264L114.362 258.5C114.362 258.5 122.362 240.5 141.862 221C145.518 217.087 154.362 209 158.362 205.5C162.362 202 182.056 185.874 192.862 176C204.862 165.034 215.331 153.541 221.362 143C229.905 128.068 231.362 115.552 231.362 113.5C233.362 93 224.107 69.5629 207.362 46.5Z" fill="url(#paint1_linear_7_19)"/>
<path d="M98.2237 166C106.224 157 111.362 123.5 110.362 94C110.53 89.6521 109.362 85 111.862 94C113.938 101.477 122.4 122.877 123.724 145L98.2237 166Z" fill="url(#paint2_linear_7_19)"/>
</g>
<defs>
<linearGradient id="paint0_linear_7_19" x1="81.3577" y1="64.4393" x2="81.3577" y2="344.77" gradientUnits="userSpaceOnUse">
<stop stop-color="#D96E39"/>
<stop offset="1" stop-color="#733A1E"/>
</linearGradient>
<linearGradient id="paint1_linear_7_19" x1="242.724" y1="237" x2="16.2236" y2="129.5" gradientUnits="userSpaceOnUse">
<stop offset="0.221138" stop-color="#C06016"/>
<stop offset="0.498304" stop-color="#9E5822"/>
<stop offset="0.682692" stop-color="#D0732D"/>
</linearGradient>
<linearGradient id="paint2_linear_7_19" x1="110.974" y1="88.8507" x2="110.974" y2="166" gradientUnits="userSpaceOnUse">
<stop stop-color="#D0732D"/>
<stop offset="1" stop-color="#6A3B17"/>
</linearGradient>
</defs>
</svg>
